<?xml version="1.0" encoding="UTF-8" standalone="no"?>
<!-- Created with Inkscape (http://www.inkscape.org/) -->

<svg
   xmlns:dc="http://purl.org/dc/elements/1.1/"
   xmlns:cc="http://creativecommons.org/ns#"
   xmlns:rdf="http://www.w3.org/1999/02/22-rdf-syntax-ns#"
   xmlns:svg="http://www.w3.org/2000/svg"
   xmlns="http://www.w3.org/2000/svg"
   xmlns:sodipodi="http://sodipodi.sourceforge.net/DTD/sodipodi-0.dtd"
   xmlns:inkscape="http://www.inkscape.org/namespaces/inkscape"
   width="744.09448819"
   height="1052.3622047"
   id="svg2"
   version="1.1"
   inkscape:version="0.48.2 r9819"
   sodipodi:docname="logo.svg">
  <defs
     id="defs4" />
  <sodipodi:namedview
     id="base"
     pagecolor="#000000"
     bordercolor="#666666"
     borderopacity="1.0"
     inkscape:pageopacity="0"
     inkscape:pageshadow="2"
     inkscape:zoom="2.861173"
     inkscape:cx="228.45613"
     inkscape:cy="824.53223"
     inkscape:document-units="px"
     inkscape:current-layer="layer1"
     showgrid="false"
     inkscape:window-width="1440"
     inkscape:window-height="852"
     inkscape:window-x="0"
     inkscape:window-y="0"
     inkscape:window-maximized="1" />
  <metadata
     id="metadata7">
    <rdf:RDF>
      <cc:Work
         rdf:about="">
        <dc:format>image/svg+xml</dc:format>
        <dc:type
           rdf:resource="http://purl.org/dc/dcmitype/StillImage" />
        <dc:title></dc:title>
      </cc:Work>
    </rdf:RDF>
  </metadata>
  <g
     inkscape:label="Layer 1"
     inkscape:groupmode="layer"
     id="layer1">
    <rect
       y="170.96263"
       x="134.47412"
       height="88.887306"
       width="307.93103"
       id="rect3033"
       style="fill:#000000;fill-opacity:1;stroke:#000000;stroke-width:0.69999999;stroke-linecap:butt;stroke-miterlimit:4;stroke-opacity:1;stroke-dasharray:none" />
    <text
       xml:space="preserve"
       style="font-size:42px;font-style:normal;font-variant:normal;font-weight:normal;font-stretch:normal;text-align:start;line-height:125%;letter-spacing:0px;word-spacing:0px;writing-mode:lr-tb;text-anchor:start;fill:#000000;fill-opacity:1;stroke:none;font-family:Sans;-inkscape-font-specification:Sans"
       x="232.12636"
       y="228.05318"
       id="text2987"
       sodipodi:linespacing="125%"
       inkscape:export-filename="/Users/simon/Documents/Schule/Studium/7054 Web Programming/git/ch.bfh.bti7054.w2013.q.webshop/Webshop/doc/ci/logo-white.png"
       inkscape:export-xdpi="254.00407"
       inkscape:export-ydpi="254.00407"><tspan
         sodipodi:role="line"
         id="tspan2991"
         style="font-size:42px;font-style:normal;font-variant:normal;font-weight:100;font-stretch:normal;text-align:start;line-height:125%;writing-mode:lr-tb;text-anchor:start;fill:#ffffff;font-family:Helvetica Neue;-inkscape-font-specification:Helvetica Neue Thin"
         x="232.12636"
         y="228.05318">PlanetShop</tspan></text>
    <text
       xml:space="preserve"
       style="font-size:42px;font-style:normal;font-variant:normal;font-weight:100;font-stretch:normal;text-align:start;line-height:125%;letter-spacing:0px;word-spacing:0px;writing-mode:lr-tb;text-anchor:start;fill:#000000;fill-opacity:1;stroke:none;font-family:Helvetica Neue;-inkscape-font-specification:Helvetica Neue Thin"
       x="210.65746"
       y="237.02618"
       id="text2993"
       sodipodi:linespacing="125%"
       inkscape:export-filename="/Users/simon/Documents/Schule/Studium/7054 Web Programming/git/ch.bfh.bti7054.w2013.q.webshop/Webshop/doc/ci/logo-white.png"
       inkscape:export-xdpi="254.00407"
       inkscape:export-ydpi="254.00407"><tspan
         sodipodi:role="line"
         id="tspan2995"
         x="210.65746"
         y="237.02618"
         style="font-size:72px;fill:#ffffff">|</tspan></text>
    <g
       id="g4130"
       transform="translate(-139.42278,-115.00214)"
       inkscape:export-filename="/Users/simon/Documents/Schule/Studium/7054 Web Programming/git/ch.bfh.bti7054.w2013.q.webshop/Webshop/doc/ci/logo-white.png"
       inkscape:export-xdpi="254.00407"
       inkscape:export-ydpi="254.00407">
      <path
         transform="translate(0,-0.04429028)"
         inkscape:tile-y0="300.40706"
         inkscape:tile-x0="279.90224"
         inkscape:tile-h="62.075096"
         inkscape:tile-w="62.075096"
         inkscape:tile-cy="331.44461"
         inkscape:tile-cx="310.93979"
         d="m 341.97734,331.44461 c 0,17.14157 -13.89599,31.03755 -31.03755,31.03755 -17.14157,0 -31.03755,-13.89598 -31.03755,-31.03755 0,-17.14156 13.89598,-31.03755 31.03755,-31.03755 17.14156,0 31.03755,13.89599 31.03755,31.03755 z"
         sodipodi:ry="31.037548"
         sodipodi:rx="31.037548"
         sodipodi:cy="331.44461"
         sodipodi:cx="310.93979"
         id="path2999"
         style="fill:none;stroke:#ffffff;stroke-width:0.69999999;stroke-linecap:butt;stroke-miterlimit:4;stroke-dasharray:none"
         sodipodi:type="arc" />
      <path
         transform="translate(0,-0.04429028)"
         sodipodi:type="arc"
         style="fill:none;stroke:#ffffff;stroke-width:0.69999999;stroke-linecap:butt;stroke-miterlimit:4;stroke-dasharray:none"
         id="use3997"
         sodipodi:cx="310.93979"
         sodipodi:cy="331.44461"
         sodipodi:rx="31.037548"
         sodipodi:ry="31.037548"
         d="m 341.97734,331.44461 c 0,17.14157 -13.89599,31.03755 -31.03755,31.03755 -17.14157,0 -31.03755,-13.89598 -31.03755,-31.03755 0,-17.14156 13.89598,-31.03755 31.03755,-31.03755 17.14156,0 31.03755,13.89599 31.03755,31.03755 z"
         inkscape:tile-x0="279.90224"
         inkscape:tile-y0="300.40706" />
      <path
         transform="matrix(0.67,0,0,1,102.61013,-0.04429028)"
         sodipodi:type="arc"
         style="fill:none;stroke:#ffffff;stroke-width:0.69999999;stroke-linecap:butt;stroke-miterlimit:4;stroke-dasharray:none"
         id="use3999"
         sodipodi:cx="310.93979"
         sodipodi:cy="331.44461"
         sodipodi:rx="31.037548"
         sodipodi:ry="31.037548"
         d="m 341.97734,331.44461 c 0,17.14157 -13.89599,31.03755 -31.03755,31.03755 -17.14157,0 -31.03755,-13.89598 -31.03755,-31.03755 0,-17.14156 13.89598,-31.03755 31.03755,-31.03755 17.14156,0 31.03755,13.89599 31.03755,31.03755 z"
         inkscape:tile-x0="279.90224"
         inkscape:tile-y0="300.40706" />
      <path
         transform="matrix(0.34,0,0,1,205.22026,-0.04429028)"
         sodipodi:type="arc"
         style="fill:none;stroke:#ffffff;stroke-width:0.69999999;stroke-linecap:butt;stroke-miterlimit:4;stroke-dasharray:none"
         id="use4001"
         sodipodi:cx="310.93979"
         sodipodi:cy="331.44461"
         sodipodi:rx="31.037548"
         sodipodi:ry="31.037548"
         d="m 341.97734,331.44461 c 0,17.14157 -13.89599,31.03755 -31.03755,31.03755 -17.14157,0 -31.03755,-13.89598 -31.03755,-31.03755 0,-17.14156 13.89598,-31.03755 31.03755,-31.03755 17.14156,0 31.03755,13.89599 31.03755,31.03755 z"
         inkscape:tile-x0="279.90224"
         inkscape:tile-y0="300.40706" />
      <path
         inkscape:connector-curvature="0"
         id="path4011"
         d="m 310.56143,300.36389 0.29558,62.07287"
         style="fill:none;stroke:#ffffff;stroke-width:0.5;stroke-linecap:butt;stroke-linejoin:miter;stroke-miterlimit:4;stroke-opacity:1;stroke-dasharray:none" />
      <path
         transform="matrix(0,1,-1,0,642.3844,20.460531)"
         sodipodi:type="arc"
         style="fill:none;stroke:#ffffff;stroke-width:0.69999999;stroke-linecap:butt;stroke-miterlimit:4;stroke-dasharray:none"
         id="path4013"
         sodipodi:cx="310.93979"
         sodipodi:cy="331.44461"
         sodipodi:rx="31.037548"
         sodipodi:ry="31.037548"
         d="m 341.97734,331.44461 c 0,17.14157 -13.89599,31.03755 -31.03755,31.03755 -17.14157,0 -31.03755,-13.89598 -31.03755,-31.03755 0,-17.14156 13.89598,-31.03755 31.03755,-31.03755 17.14156,0 31.03755,13.89599 31.03755,31.03755 z"
         inkscape:tile-cx="310.93979"
         inkscape:tile-cy="331.44461"
         inkscape:tile-w="62.075096"
         inkscape:tile-h="62.075096"
         inkscape:tile-x0="279.90224"
         inkscape:tile-y0="300.40706" />
      <path
         transform="matrix(0,1,-1,0,642.3844,20.460531)"
         inkscape:tile-y0="300.40706"
         inkscape:tile-x0="279.90224"
         d="m 341.97734,331.44461 c 0,17.14157 -13.89599,31.03755 -31.03755,31.03755 -17.14157,0 -31.03755,-13.89598 -31.03755,-31.03755 0,-17.14156 13.89598,-31.03755 31.03755,-31.03755 17.14156,0 31.03755,13.89599 31.03755,31.03755 z"
         sodipodi:ry="31.037548"
         sodipodi:rx="31.037548"
         sodipodi:cy="331.44461"
         sodipodi:cx="310.93979"
         id="path4015"
         style="fill:none;stroke:#ffffff;stroke-width:0.69999999;stroke-linecap:butt;stroke-miterlimit:4;stroke-dasharray:none"
         sodipodi:type="arc" />
      <path
         inkscape:tile-y0="300.40706"
         inkscape:tile-x0="279.90224"
         d="m 341.97734,331.44461 c 0,17.14157 -13.89599,31.03755 -31.03755,31.03755 -17.14157,0 -31.03755,-13.89598 -31.03755,-31.03755 0,-17.14156 13.89598,-31.03755 31.03755,-31.03755 17.14156,0 31.03755,13.89599 31.03755,31.03755 z"
         sodipodi:ry="31.037548"
         sodipodi:rx="31.037548"
         sodipodi:cy="331.44461"
         sodipodi:cx="310.93979"
         id="path4017"
         style="fill:none;stroke:#ffffff;stroke-width:0.69999999;stroke-linecap:butt;stroke-miterlimit:4;stroke-dasharray:none"
         sodipodi:type="arc"
         transform="matrix(0,0.67,-1,0,642.3844,123.07066)" />
      <path
         inkscape:tile-y0="300.40706"
         inkscape:tile-x0="279.90224"
         d="m 341.97734,331.44461 c 0,17.14157 -13.89599,31.03755 -31.03755,31.03755 -17.14157,0 -31.03755,-13.89598 -31.03755,-31.03755 0,-17.14156 13.89598,-31.03755 31.03755,-31.03755 17.14156,0 31.03755,13.89599 31.03755,31.03755 z"
         sodipodi:ry="31.037548"
         sodipodi:rx="31.037548"
         sodipodi:cy="331.44461"
         sodipodi:cx="310.93979"
         id="path4019"
         style="fill:none;stroke:#ffffff;stroke-width:0.69999999;stroke-linecap:butt;stroke-miterlimit:4;stroke-dasharray:none"
         sodipodi:type="arc"
         transform="matrix(0,0.34,-1,0,642.3844,225.68079)" />
      <path
         style="fill:none;stroke:#ffffff;stroke-width:0.5;stroke-linecap:butt;stroke-linejoin:miter;stroke-miterlimit:4;stroke-opacity:1;stroke-dasharray:none"
         d="m 341.74565,331.25253 -62.07287,0.29558"
         id="path4021"
         inkscape:connector-curvature="0" />
    </g>
    <rect
       style="fill:#ffffff;stroke:#000000;stroke-width:0.69999999;stroke-linecap:butt;stroke-miterlimit:4;stroke-opacity:1;stroke-dasharray:none"
       id="rect4422"
       width="307.93103"
       height="88.887306"
       x="134.47412"
       y="264.28101" />
    <g
       id="g3013"
       inkscape:export-filename="/Users/simon/Documents/Schule/Studium/7054 Web Programming/git/ch.bfh.bti7054.w2013.q.webshop/Webshop/doc/ci/logo-black.png"
       inkscape:export-xdpi="262.7626"
       inkscape:export-ydpi="262.7626">
      <g
         id="g4400"
         transform="translate(-138.62914,-23.844635)"
         style="fill:none;stroke:#000000;stroke-opacity:1">
        <path
           transform="translate(0,-0.04429028)"
           inkscape:tile-y0="300.40706"
           inkscape:tile-x0="279.90224"
           inkscape:tile-h="62.075096"
           inkscape:tile-w="62.075096"
           inkscape:tile-cy="331.44461"
           inkscape:tile-cx="310.93979"
           d="m 341.97734,331.44461 c 0,17.14157 -13.89599,31.03755 -31.03755,31.03755 -17.14157,0 -31.03755,-13.89598 -31.03755,-31.03755 0,-17.14156 13.89598,-31.03755 31.03755,-31.03755 17.14156,0 31.03755,13.89599 31.03755,31.03755 z"
           sodipodi:ry="31.037548"
           sodipodi:rx="31.037548"
           sodipodi:cy="331.44461"
           sodipodi:cx="310.93979"
           id="path4402"
           style="fill:none;stroke:#000000;stroke-width:0.69999999;stroke-linecap:butt;stroke-miterlimit:4;stroke-opacity:1;stroke-dasharray:none"
           sodipodi:type="arc" />
        <path
           transform="translate(0,-0.04429028)"
           sodipodi:type="arc"
           style="fill:none;stroke:#000000;stroke-width:0.69999999;stroke-linecap:butt;stroke-miterlimit:4;stroke-opacity:1;stroke-dasharray:none"
           id="path4404"
           sodipodi:cx="310.93979"
           sodipodi:cy="331.44461"
           sodipodi:rx="31.037548"
           sodipodi:ry="31.037548"
           d="m 341.97734,331.44461 c 0,17.14157 -13.89599,31.03755 -31.03755,31.03755 -17.14157,0 -31.03755,-13.89598 -31.03755,-31.03755 0,-17.14156 13.89598,-31.03755 31.03755,-31.03755 17.14156,0 31.03755,13.89599 31.03755,31.03755 z"
           inkscape:tile-x0="279.90224"
           inkscape:tile-y0="300.40706" />
        <path
           transform="matrix(0.67,0,0,1,102.61013,-0.04429028)"
           sodipodi:type="arc"
           style="fill:none;stroke:#000000;stroke-width:0.69999999;stroke-linecap:butt;stroke-miterlimit:4;stroke-opacity:1;stroke-dasharray:none"
           id="path4406"
           sodipodi:cx="310.93979"
           sodipodi:cy="331.44461"
           sodipodi:rx="31.037548"
           sodipodi:ry="31.037548"
           d="m 341.97734,331.44461 c 0,17.14157 -13.89599,31.03755 -31.03755,31.03755 -17.14157,0 -31.03755,-13.89598 -31.03755,-31.03755 0,-17.14156 13.89598,-31.03755 31.03755,-31.03755 17.14156,0 31.03755,13.89599 31.03755,31.03755 z"
           inkscape:tile-x0="279.90224"
           inkscape:tile-y0="300.40706" />
        <path
           transform="matrix(0.34,0,0,1,205.22026,-0.04429028)"
           sodipodi:type="arc"
           style="fill:none;stroke:#000000;stroke-width:0.69999999;stroke-linecap:butt;stroke-miterlimit:4;stroke-opacity:1;stroke-dasharray:none"
           id="path4408"
           sodipodi:cx="310.93979"
           sodipodi:cy="331.44461"
           sodipodi:rx="31.037548"
           sodipodi:ry="31.037548"
           d="m 341.97734,331.44461 c 0,17.14157 -13.89599,31.03755 -31.03755,31.03755 -17.14157,0 -31.03755,-13.89598 -31.03755,-31.03755 0,-17.14156 13.89598,-31.03755 31.03755,-31.03755 17.14156,0 31.03755,13.89599 31.03755,31.03755 z"
           inkscape:tile-x0="279.90224"
           inkscape:tile-y0="300.40706" />
        <path
           inkscape:connector-curvature="0"
           id="path4410"
           d="m 310.56143,300.36389 0.29558,62.07287"
           style="fill:none;stroke:#000000;stroke-width:0.5;stroke-linecap:butt;stroke-linejoin:miter;stroke-miterlimit:4;stroke-opacity:1;stroke-dasharray:none" />
        <path
           transform="matrix(0,1,-1,0,642.3844,20.460531)"
           sodipodi:type="arc"
           style="fill:none;stroke:#000000;stroke-width:0.69999999;stroke-linecap:butt;stroke-miterlimit:4;stroke-opacity:1;stroke-dasharray:none"
           id="path4412"
           sodipodi:cx="310.93979"
           sodipodi:cy="331.44461"
           sodipodi:rx="31.037548"
           sodipodi:ry="31.037548"
           d="m 341.97734,331.44461 c 0,17.14157 -13.89599,31.03755 -31.03755,31.03755 -17.14157,0 -31.03755,-13.89598 -31.03755,-31.03755 0,-17.14156 13.89598,-31.03755 31.03755,-31.03755 17.14156,0 31.03755,13.89599 31.03755,31.03755 z"
           inkscape:tile-cx="310.93979"
           inkscape:tile-cy="331.44461"
           inkscape:tile-w="62.075096"
           inkscape:tile-h="62.075096"
           inkscape:tile-x0="279.90224"
           inkscape:tile-y0="300.40706" />
        <path
           transform="matrix(0,1,-1,0,642.3844,20.460531)"
           inkscape:tile-y0="300.40706"
           inkscape:tile-x0="279.90224"
           d="m 341.97734,331.44461 c 0,17.14157 -13.89599,31.03755 -31.03755,31.03755 -17.14157,0 -31.03755,-13.89598 -31.03755,-31.03755 0,-17.14156 13.89598,-31.03755 31.03755,-31.03755 17.14156,0 31.03755,13.89599 31.03755,31.03755 z"
           sodipodi:ry="31.037548"
           sodipodi:rx="31.037548"
           sodipodi:cy="331.44461"
           sodipodi:cx="310.93979"
           id="path4414"
           style="fill:none;stroke:#000000;stroke-width:0.69999999;stroke-linecap:butt;stroke-miterlimit:4;stroke-opacity:1;stroke-dasharray:none"
           sodipodi:type="arc" />
        <path
           inkscape:tile-y0="300.40706"
           inkscape:tile-x0="279.90224"
           d="m 341.97734,331.44461 c 0,17.14157 -13.89599,31.03755 -31.03755,31.03755 -17.14157,0 -31.03755,-13.89598 -31.03755,-31.03755 0,-17.14156 13.89598,-31.03755 31.03755,-31.03755 17.14156,0 31.03755,13.89599 31.03755,31.03755 z"
           sodipodi:ry="31.037548"
           sodipodi:rx="31.037548"
           sodipodi:cy="331.44461"
           sodipodi:cx="310.93979"
           id="path4416"
           style="fill:none;stroke:#000000;stroke-width:0.69999999;stroke-linecap:butt;stroke-miterlimit:4;stroke-opacity:1;stroke-dasharray:none"
           sodipodi:type="arc"
           transform="matrix(0,0.67,-1,0,642.3844,123.07066)" />
        <path
           inkscape:tile-y0="300.40706"
           inkscape:tile-x0="279.90224"
           d="m 341.97734,331.44461 c 0,17.14157 -13.89599,31.03755 -31.03755,31.03755 -17.14157,0 -31.03755,-13.89598 -31.03755,-31.03755 0,-17.14156 13.89598,-31.03755 31.03755,-31.03755 17.14156,0 31.03755,13.89599 31.03755,31.03755 z"
           sodipodi:ry="31.037548"
           sodipodi:rx="31.037548"
           sodipodi:cy="331.44461"
           sodipodi:cx="310.93979"
           id="path4418"
           style="fill:none;stroke:#000000;stroke-width:0.69999999;stroke-linecap:butt;stroke-miterlimit:4;stroke-opacity:1;stroke-dasharray:none"
           sodipodi:type="arc"
           transform="matrix(0,0.34,-1,0,642.3844,225.68079)" />
        <path
           style="fill:none;stroke:#000000;stroke-width:0.5;stroke-linecap:butt;stroke-linejoin:miter;stroke-miterlimit:4;stroke-opacity:1;stroke-dasharray:none"
           d="m 341.74565,331.25253 -62.07287,0.29558"
           id="path4420"
           inkscape:connector-curvature="0" />
      </g>
      <text
         sodipodi:linespacing="125%"
         id="text4439"
         y="328.18369"
         x="211.2011"
         style="font-size:72px;font-style:normal;font-variant:normal;font-weight:100;font-stretch:normal;text-align:start;line-height:125%;letter-spacing:0px;word-spacing:0px;writing-mode:lr-tb;text-anchor:start;fill:#000000;fill-opacity:1;stroke:none;font-family:Helvetica Neue;-inkscape-font-specification:Helvetica Neue Thin"
         xml:space="preserve"><tspan
           y="328.18369"
           x="211.2011"
           id="tspan4441"
           sodipodi:role="line">|</tspan></text>
      <text
         sodipodi:linespacing="125%"
         id="text4470"
         y="320.06317"
         x="232.528"
         style="font-size:40px;font-style:normal;font-variant:normal;font-weight:100;font-stretch:normal;text-align:start;line-height:125%;letter-spacing:0px;word-spacing:0px;writing-mode:lr-tb;text-anchor:start;fill:#000000;fill-opacity:1;stroke:none;font-family:Helvetica Neue;-inkscape-font-specification:Helvetica Neue Thin"
         xml:space="preserve"><tspan
           y="320.06317"
           x="232.528"
           id="tspan4472"
           sodipodi:role="line">PlanetShop</tspan></text>
    </g>
  </g>
</svg>
